<svg width="24" height="24" viewBox="0 0 24 24" fill="none" xmlns="http://www.w3.org/2000/svg">
<path d="M20.2289 12.1524H11.8477V3.7711C11.8477 3.66798 11.7633 3.5836 11.6602 3.5836H11.0508C9.82098 3.58235 8.60303 3.82394 7.46681 4.29451C6.3306 4.76509 5.29848 5.45538 4.42969 6.32579C3.5743 7.17854 2.8929 8.18949 2.42344 9.30235C1.93594 10.4578 1.6875 11.6836 1.6875 12.9492C1.6875 14.2149 1.93594 15.4383 2.42344 16.5938C2.89453 17.707 3.56953 18.7102 4.42969 19.5703C5.28984 20.4305 6.29062 21.1055 7.40625 21.5766C8.5597 22.0659 9.80017 22.317 11.0531 22.3149C12.2829 22.3161 13.5009 22.0745 14.6371 21.6039C15.7733 21.1334 16.8054 20.4431 17.6742 19.5727C18.5344 18.7125 19.2094 17.7117 19.6805 16.5961C20.1698 15.4427 20.4209 14.2022 20.4187 12.9492V12.3399C20.4164 12.2367 20.332 12.1524 20.2289 12.1524ZM22.2891 10.8516L22.2281 10.1906C22.0289 8.03439 21.0727 6.00001 19.5305 4.46485C17.9897 2.92539 15.9594 1.97282 13.7906 1.77188L13.1273 1.71095C13.0172 1.70157 12.9234 1.78595 12.9234 1.8961V10.8891C12.9234 10.9922 13.0078 11.0766 13.1109 11.0766L22.1016 11.0531C22.2117 11.0508 22.2984 10.9594 22.2891 10.8516Z" fill="white"/>
</svg>
