<svg width="40" height="40" viewBox="0 0 40 40" fill="none" xmlns="http://www.w3.org/2000/svg">
<path fill-rule="evenodd" clip-rule="evenodd" d="M14.6348 11.615C14.7512 11.7311 14.8436 11.8691 14.9066 12.0209C14.9696 12.1728 15.002 12.3356 15.002 12.5C15.002 12.6644 14.9696 12.8272 14.9066 12.9791C14.8436 13.131 14.7512 13.2689 14.6348 13.385L8.01729 20L14.6348 26.615C14.751 26.7312 14.8432 26.8692 14.9061 27.021C14.969 27.1729 15.0014 27.3356 15.0014 27.5C15.0014 27.6644 14.969 27.8271 14.9061 27.979C14.8432 28.1308 14.751 28.2688 14.6348 28.385C14.5186 28.5012 14.3806 28.5934 14.2288 28.6563C14.0769 28.7192 13.9142 28.7516 13.7498 28.7516C13.5854 28.7516 13.4227 28.7192 13.2708 28.6563C13.119 28.5934 12.981 28.5012 12.8648 28.385L5.36479 20.885C5.24838 20.7689 5.15603 20.631 5.09301 20.4791C5.03 20.3272 4.99756 20.1644 4.99756 20C4.99756 19.8356 5.03 19.6728 5.09301 19.5209C5.15603 19.3691 5.24838 19.2311 5.36479 19.115L12.8648 11.615C12.9809 11.4986 13.1188 11.4062 13.2707 11.3432C13.4226 11.2802 13.5854 11.2478 13.7498 11.2478C13.9142 11.2478 14.077 11.2802 14.2289 11.3432C14.3807 11.4062 14.5187 11.4986 14.6348 11.615V11.615Z" fill="white"/>
<path fill-rule="evenodd" clip-rule="evenodd" d="M6.25 20C6.25 19.6685 6.3817 19.3505 6.61612 19.1161C6.85054 18.8817 7.16848 18.75 7.5 18.75H33.75C34.0815 18.75 34.3995 18.8817 34.6339 19.1161C34.8683 19.3505 35 19.6685 35 20C35 20.3315 34.8683 20.6495 34.6339 20.8839C34.3995 21.1183 34.0815 21.25 33.75 21.25H7.5C7.16848 21.25 6.85054 21.1183 6.61612 20.8839C6.3817 20.6495 6.25 20.3315 6.25 20Z" fill="white"/>
</svg>
