<svg width="40" height="40" viewBox="0 0 40 40" fill="none" xmlns="http://www.w3.org/2000/svg">
<path fill-rule="evenodd" clip-rule="evenodd" d="M25.3648 11.615C25.4809 11.4986 25.6188 11.4063 25.7707 11.3433C25.9226 11.2802 26.0854 11.2478 26.2498 11.2478C26.4142 11.2478 26.577 11.2802 26.7289 11.3433C26.8807 11.4063 27.0187 11.4986 27.1348 11.615L34.6348 19.115C34.7512 19.2311 34.8436 19.3691 34.9066 19.521C34.9696 19.6728 35.002 19.8356 35.002 20C35.002 20.1645 34.9696 20.3273 34.9066 20.4791C34.8436 20.631 34.7512 20.7689 34.6348 20.885L27.1348 28.385C26.9001 28.6198 26.5817 28.7516 26.2498 28.7516C25.9179 28.7516 25.5995 28.6198 25.3648 28.385C25.1301 28.1503 24.9982 27.832 24.9982 27.5C24.9982 27.1681 25.1301 26.8498 25.3648 26.615L31.9823 20L25.3648 13.385C25.2484 13.2689 25.156 13.131 25.093 12.9791C25.03 12.8273 24.9976 12.6645 24.9976 12.5C24.9976 12.3356 25.03 12.1728 25.093 12.021C25.156 11.8691 25.2484 11.7312 25.3648 11.615V11.615Z" fill="#D9D9D9"/>
<path fill-rule="evenodd" clip-rule="evenodd" d="M5 20C5 19.6685 5.1317 19.3505 5.36612 19.1161C5.60054 18.8817 5.91848 18.75 6.25 18.75H32.5C32.8315 18.75 33.1495 18.8817 33.3839 19.1161C33.6183 19.3505 33.75 19.6685 33.75 20C33.75 20.3315 33.6183 20.6495 33.3839 20.8839C33.1495 21.1183 32.8315 21.25 32.5 21.25H6.25C5.91848 21.25 5.60054 21.1183 5.36612 20.8839C5.1317 20.6495 5 20.3315 5 20Z" fill="#D9D9D9"/>
</svg>
