<svg width="32" height="32" viewBox="0 0 32 32" fill="none" xmlns="http://www.w3.org/2000/svg">
<rect width="32" height="32" rx="5" fill="#395185" fill-opacity="0.1"/>
<g clip-path="url(#clip0)">
<path d="M22.2273 23.0001C22.654 23.0001 23 22.6541 23 22.2274V9.77268C23 9.3459 22.654 9 22.2273 9H9.77268C9.34584 9 9 9.3459 9 9.77268V22.2274C9 22.6541 9.34584 23.0001 9.77268 23.0001H22.2273Z" fill="#395185"/>
<path d="M18.6597 23V17.5785H20.4795L20.752 15.4656H18.6597V14.1166C18.6597 13.5049 18.8296 13.088 19.7068 13.088L20.8257 13.0875V11.1978C20.6321 11.172 19.968 11.1145 19.1953 11.1145C17.5822 11.1145 16.4778 12.0991 16.4778 13.9074V15.4656H14.6533V17.5785H16.4778V23H18.6597Z" fill="white"/>
</g>
<defs>
<clipPath id="clip0">
<rect width="14" height="14" fill="white" transform="translate(9 9)"/>
</clipPath>
</defs>
</svg>
