<svg width="32" height="32" viewBox="0 0 32 32" fill="none" xmlns="http://www.w3.org/2000/svg">
<rect width="32" height="32" rx="5" fill="#0072B1" fill-opacity="0.1"/>
<path d="M14.25 14.25H16.6711V15.4908H16.7061C17.043 14.8861 17.8672 14.25 19.0966 14.25C21.6525 14.25 22.125 15.8407 22.125 17.9101V22.125H19.6006V18.3887C19.6006 17.498 19.5822 16.3509 18.2881 16.3509C16.9739 16.3509 16.7726 17.3213 16.7726 18.324V22.125H14.25V14.25Z" fill="#0072B1"/>
<path d="M9.875 14.25H12.5V22.125H9.875V14.25Z" fill="#0072B1"/>
<path d="M12.4999 12.0625C12.4998 12.4107 12.3613 12.7446 12.115 12.9908C11.8687 13.2369 11.5347 13.3751 11.1865 13.375C10.8383 13.3749 10.5044 13.2365 10.2583 12.9901C10.0121 12.7438 9.87391 12.4098 9.87402 12.0616C9.87414 11.7134 10.0126 11.3795 10.2589 11.1334C10.3808 11.0115 10.5256 10.9148 10.6849 10.8489C10.8442 10.783 11.015 10.7491 11.1874 10.7491C11.3598 10.7492 11.5305 10.7832 11.6898 10.8492C11.8491 10.9153 11.9938 11.012 12.1157 11.134C12.2375 11.2559 12.3342 11.4007 12.4001 11.56C12.4661 11.7193 12.5 11.8901 12.4999 12.0625Z" fill="#0072B1"/>
</svg>
