<svg width="89" height="13" viewBox="0 0 89 13" fill="none" xmlns="http://www.w3.org/2000/svg">
<path d="M5.152 12.112C3.84 12.112 2.76267 11.8027 1.92 11.184C1.07733 10.5547 0.624 9.65867 0.56 8.496H3.904C3.936 8.89067 4.05333 9.17867 4.256 9.36C4.45867 9.54133 4.72 9.632 5.04 9.632C5.328 9.632 5.56267 9.56267 5.744 9.424C5.936 9.27467 6.032 9.072 6.032 8.816C6.032 8.48533 5.87733 8.22933 5.568 8.048C5.25867 7.86667 4.75733 7.664 4.064 7.44C3.328 7.19467 2.73067 6.96 2.272 6.736C1.824 6.50133 1.42933 6.16533 1.088 5.728C0.757333 5.28 0.592 4.69867 0.592 3.984C0.592 3.25867 0.773333 2.64 1.136 2.128C1.49867 1.60533 2 1.21067 2.64 0.943999C3.28 0.677333 4.00533 0.544 4.816 0.544C6.128 0.544 7.17333 0.853333 7.952 1.472C8.74133 2.08 9.16267 2.93867 9.216 4.048H5.808C5.79733 3.70667 5.69067 3.45067 5.488 3.28C5.296 3.10933 5.04533 3.024 4.736 3.024C4.50133 3.024 4.30933 3.09333 4.16 3.232C4.01067 3.37067 3.936 3.568 3.936 3.824C3.936 4.03733 4.016 4.224 4.176 4.384C4.34667 4.53333 4.55467 4.66667 4.8 4.784C5.04533 4.89067 5.408 5.02933 5.888 5.2C6.60267 5.44533 7.18933 5.69067 7.648 5.936C8.11733 6.17067 8.51733 6.50667 8.848 6.944C9.18933 7.37067 9.36 7.91467 9.36 8.576C9.36 9.248 9.18933 9.85067 8.848 10.384C8.51733 10.9173 8.032 11.3387 7.392 11.648C6.76267 11.9573 6.016 12.112 5.152 12.112ZM17.7459 5.152V7.76H10.4979V5.152H17.7459ZM40.4226 3.232V5.072H44.0226V7.456H40.4226V9.488H44.5026V12H37.2866V0.719999H44.5026V3.232H40.4226ZM53.2523 6.208C53.9136 6.35733 54.4363 6.688 54.8203 7.2C55.2149 7.70133 55.4123 8.27733 55.4123 8.928C55.4123 9.888 55.0816 10.64 54.4203 11.184C53.7589 11.728 52.8309 12 51.6363 12H46.0523V0.719999H51.4603C52.6123 0.719999 53.5136 0.976 54.1643 1.488C54.8256 2 55.1562 2.72 55.1562 3.648C55.1562 4.30933 54.9803 4.864 54.6283 5.312C54.2869 5.74933 53.8283 6.048 53.2523 6.208ZM49.1883 5.2H50.7723C51.5616 5.2 51.9563 4.87467 51.9563 4.224C51.9563 3.552 51.5616 3.216 50.7723 3.216H49.1883V5.2ZM51.0123 9.472C51.8016 9.472 52.1963 9.14133 52.1963 8.48C52.1963 8.13867 52.0896 7.87733 51.8763 7.696C51.6736 7.51467 51.3803 7.424 50.9963 7.424H49.1883V9.472H51.0123ZM61.0426 12.112C59.7306 12.112 58.6533 11.8027 57.8106 11.184C56.968 10.5547 56.5146 9.65867 56.4506 8.496H59.7946C59.8266 8.89067 59.944 9.17867 60.1466 9.36C60.3493 9.54133 60.6106 9.632 60.9306 9.632C61.2186 9.632 61.4533 9.56267 61.6346 9.424C61.8266 9.27467 61.9226 9.072 61.9226 8.816C61.9226 8.48533 61.768 8.22933 61.4586 8.048C61.1493 7.86667 60.648 7.664 59.9546 7.44C59.2186 7.19467 58.6213 6.96 58.1626 6.736C57.7146 6.50133 57.32 6.16533 56.9786 5.728C56.648 5.28 56.4826 4.69867 56.4826 3.984C56.4826 3.25867 56.664 2.64 57.0266 2.128C57.3893 1.60533 57.8906 1.21067 58.5306 0.943999C59.1706 0.677333 59.896 0.544 60.7066 0.544C62.0186 0.544 63.064 0.853333 63.8426 1.472C64.632 2.08 65.0533 2.93867 65.1066 4.048H61.6986C61.688 3.70667 61.5813 3.45067 61.3786 3.28C61.1866 3.10933 60.936 3.024 60.6266 3.024C60.392 3.024 60.2 3.09333 60.0506 3.232C59.9013 3.37067 59.8266 3.568 59.8266 3.824C59.8266 4.03733 59.9066 4.224 60.0666 4.384C60.2373 4.53333 60.4453 4.66667 60.6906 4.784C60.936 4.89067 61.2986 5.02933 61.7786 5.2C62.4933 5.44533 63.08 5.69067 63.5386 5.936C64.008 6.17067 64.408 6.50667 64.7386 6.944C65.08 7.37067 65.2506 7.91467 65.2506 8.576C65.2506 9.248 65.08 9.85067 64.7386 10.384C64.408 10.9173 63.9226 11.3387 63.2826 11.648C62.6533 11.9573 61.9066 12.112 61.0426 12.112ZM69.8445 0.719999V12H66.7085V0.719999H69.8445ZM80.1264 0.719999V3.216H77.1184V12H73.9824V3.216H71.0064V0.719999H80.1264ZM84.4226 3.232V5.072H88.0226V7.456H84.4226V9.488H88.5026V12H81.2866V0.719999H88.5026V3.232H84.4226Z" fill="white"/>
<path d="M35.9559 0.719999L33.1879 12H29.3319L27.7799 5.088L26.1959 12H22.3399L19.6039 0.719999H22.9959L24.3079 8.432L26.0839 0.719999H29.5239L31.2519 8.368L32.5639 0.719999H35.9559Z" fill="#FCB041"/>
</svg>
