<svg width="24" height="24" viewBox="0 0 24 24" fill="none" xmlns="http://www.w3.org/2000/svg">
<path d="M11.9888 4.47901C6.31653 4.47901 1.71753 7.53676 1.71753 11.3085C1.71753 13.4663 3.22728 15.3885 5.57778 16.6395C5.24328 17.7495 4.57578 18.9773 3.28578 20.064C3.28578 20.064 6.29778 19.8645 8.42478 17.7068C8.54703 17.7368 8.67378 17.7593 8.79753 17.7863C8.67699 17.4381 8.61441 17.0725 8.61228 16.704C8.61228 14.1593 11.4443 12.1665 15.0623 12.1665C17.6595 12.1665 19.8458 13.1985 20.8748 14.721C21.7508 13.716 22.26 12.5513 22.26 11.3063C22.26 7.53526 17.661 4.47751 11.9888 4.47751V4.47901ZM20.76 16.7055C20.76 14.613 18.21 12.9158 15.06 12.9158C11.9138 12.9158 9.36153 14.6138 9.36153 16.7063C9.36153 18.7988 11.9138 20.496 15.0615 20.496C15.7575 20.496 16.4213 20.409 17.0385 20.256C18.2183 21.4545 19.8885 21.5648 19.8885 21.5648C19.1738 20.9618 18.804 20.28 18.618 19.6643C19.9215 18.9705 20.76 17.904 20.76 16.7063V16.7055Z" fill="white"/>
</svg>
