<svg width="80" height="12" viewBox="0 0 80 12" fill="none" xmlns="http://www.w3.org/2000/svg">
<g clip-path="url(#clip0)">
<path d="M2.709 11.5823C2.4195 11.7308 2.091 11.4705 2.1495 11.1383L2.772 7.59076L0.129747 5.07376C-0.117003 4.83826 0.0112472 4.40776 0.341997 4.36126L4.0155 3.83926L5.6535 0.594009C5.80125 0.301509 6.201 0.301509 6.34875 0.594009L7.98675 3.83926L11.6602 4.36126C11.991 4.40776 12.1192 4.83826 11.8725 5.07376L9.23025 7.59076L9.85275 11.1383C9.91125 11.4705 9.58275 11.7308 9.29325 11.5823L6 9.89026L2.70825 11.5823H2.709Z" fill="#FCB041"/>
</g>
<g clip-path="url(#clip1)">
<path d="M70.709 11.5823C70.4195 11.7308 70.091 11.4705 70.1495 11.1383L70.772 7.59076L68.1298 5.07376C67.883 4.83826 68.0113 4.40776 68.342 4.36126L72.0155 3.83926L73.6535 0.594009C73.8013 0.301509 74.201 0.301509 74.3488 0.594009L75.9868 3.83926L79.6603 4.36126C79.991 4.40776 80.1193 4.83826 79.8725 5.07376L77.2303 7.59076L77.8528 11.1383C77.9113 11.4705 77.5828 11.7308 77.2933 11.5823L74 9.89026L70.7083 11.5823H70.709Z" fill="#D9D9D9"/>
</g>
<g clip-path="url(#clip2)">
<path d="M53.709 11.5823C53.4195 11.7308 53.091 11.4705 53.1495 11.1383L53.772 7.59076L51.1298 5.07376C50.883 4.83826 51.0113 4.40776 51.342 4.36126L55.0155 3.83926L56.6535 0.594009C56.8013 0.301509 57.201 0.301509 57.3488 0.594009L58.9868 3.83926L62.6603 4.36126C62.991 4.40776 63.1193 4.83826 62.8725 5.07376L60.2303 7.59076L60.8528 11.1383C60.9113 11.4705 60.5828 11.7308 60.2933 11.5823L57 9.89026L53.7083 11.5823H53.709Z" fill="#FCB041"/>
</g>
<g clip-path="url(#clip3)">
<path d="M36.709 11.5823C36.4195 11.7308 36.091 11.4705 36.1495 11.1383L36.772 7.59076L34.1298 5.07376C33.883 4.83826 34.0113 4.40776 34.342 4.36126L38.0155 3.83926L39.6535 0.594009C39.8013 0.301509 40.201 0.301509 40.3488 0.594009L41.9868 3.83926L45.6603 4.36126C45.991 4.40776 46.1193 4.83826 45.8725 5.07376L43.2303 7.59076L43.8528 11.1383C43.9113 11.4705 43.5828 11.7308 43.2933 11.5823L40 9.89026L36.7083 11.5823H36.709Z" fill="#FCB041"/>
</g>
<g clip-path="url(#clip4)">
<path d="M19.709 11.5823C19.4195 11.7308 19.091 11.4705 19.1495 11.1383L19.772 7.59076L17.1297 5.07376C16.883 4.83826 17.0112 4.40776 17.342 4.36126L21.0155 3.83926L22.6535 0.594009C22.8012 0.301509 23.201 0.301509 23.3487 0.594009L24.9867 3.83926L28.6602 4.36126C28.991 4.40776 29.1192 4.83826 28.8725 5.07376L26.2302 7.59076L26.8527 11.1383C26.9112 11.4705 26.5827 11.7308 26.2932 11.5823L23 9.89026L19.7082 11.5823H19.709Z" fill="#FCB041"/>
</g>
<defs>
<clipPath id="clip0">
<rect width="12" height="12" fill="white"/>
</clipPath>
<clipPath id="clip1">
<rect width="12" height="12" fill="white" transform="translate(68)"/>
</clipPath>
<clipPath id="clip2">
<rect width="12" height="12" fill="white" transform="translate(51)"/>
</clipPath>
<clipPath id="clip3">
<rect width="12" height="12" fill="white" transform="translate(34)"/>
</clipPath>
<clipPath id="clip4">
<rect width="12" height="12" fill="white" transform="translate(17)"/>
</clipPath>
</defs>
</svg>
