<svg width="32" height="32" viewBox="0 0 32 32" fill="none" xmlns="http://www.w3.org/2000/svg">
<rect width="32" height="32" rx="5" fill="#55ACEE" fill-opacity="0.1"/>
<g clip-path="url(#clip0)">
<path d="M24.1491 10.7048C23.5181 10.9846 22.84 11.1737 22.1284 11.2588C22.8548 10.8234 23.4126 10.1339 23.6753 9.31236C22.9847 9.72217 22.2291 10.0109 21.4412 10.1661C20.7994 9.48237 19.8852 9.05507 18.8732 9.05507C16.9302 9.05507 15.3549 10.6303 15.3549 12.5732C15.3549 12.8489 15.3861 13.1174 15.446 13.375C12.5221 13.2282 9.92975 11.8276 8.19448 9.69907C7.89171 10.2187 7.71822 10.8231 7.71822 11.4678C7.71822 12.6884 8.33937 13.7652 9.28334 14.3961C8.72464 14.3786 8.17824 14.2277 7.68975 13.956C7.68955 13.9707 7.68955 13.9855 7.68955 14.0003C7.68955 15.7049 8.90225 17.1268 10.5117 17.45C9.99358 17.5909 9.45015 17.6116 8.92289 17.5103C9.37055 18.9081 10.6699 19.9252 12.2093 19.9536C11.0053 20.8972 9.48824 21.4597 7.84 21.4597C7.55598 21.4597 7.27598 21.443 7.00073 21.4105C8.55768 22.4087 10.407 22.9912 12.3937 22.9912C18.865 22.9912 22.4037 17.6302 22.4037 12.9812C22.4037 12.8286 22.4003 12.6768 22.3935 12.526C23.0823 12.0281 23.6768 11.4114 24.1491 10.7048Z" fill="#55ACEE"/>
</g>
<defs>
<clipPath id="clip0">
<rect width="17.15" height="14" fill="white" transform="translate(7 9)"/>
</clipPath>
</defs>
</svg>
