<svg width="24" height="24" viewBox="0 0 24 24" fill="none" xmlns="http://www.w3.org/2000/svg">
<g clip-path="url(#clip0)">
<path d="M13.3801 20.505L10.9651 18.21L8.7151 16.08L11.7151 15.645L15.0901 15.165L15.5251 14.31H15.4951C15.1508 14.3101 14.817 14.1918 14.5496 13.975C14.2822 13.7581 14.0975 13.4559 14.0266 13.119C14.0251 12.1935 15.2251 12.4935 16.1701 10.9335C16.2901 10.9035 20.4001 -0.00152588 12.0001 -0.00152588C3.6001 -0.00152588 7.7101 10.9035 7.7101 10.9035C8.6551 12.4035 9.8701 12.1785 9.8551 13.0785C9.8401 13.9785 8.7451 14.2785 7.7101 14.3835C6.0001 14.5785 4.5001 14.1885 3.0001 17.0235C2.1001 18.6585 1.7251 23.9985 1.7251 23.9985H12.7651V23.7435L13.3801 20.505Z" fill="white"/>
<path d="M17.5801 24H18.4201L18.0001 23.79L17.5801 24Z" fill="white"/>
<path d="M18 22.095L21.705 24L21 19.965L24 17.115L19.86 16.53L18 12.855L16.14 16.53L12 17.115L15 19.965L14.295 24L18 22.095Z" fill="white"/>
</g>
<defs>
<clipPath id="clip0">
<rect width="24" height="24" fill="white"/>
</clipPath>
</defs>
</svg>
